<svg xmlns="http://www.w3.org/2000/svg" viewBox="0 0 400 400">
  <rect width="400" height="400" fill="#f5f5f5"/>
  <rect x="100" y="100" width="200" height="200" rx="20" fill="#c0c0c0" stroke="#999" stroke-width="2"/>
  <rect x="110" y="110" width="180" height="180" rx="15" fill="#e8e8e8"/>
  <rect x="120" y="120" width="160" height="160" rx="10" fill="#f0f0f0"/>
  <g stroke="#333" stroke-width="2">
    <line x1="200" y1="130" x2="200" y2="140"/>
    <line x1="240" y1="145" x2="233" y2="152"/>
    <line x1="270" y1="200" x2="260" y2="200"/>
    <line x1="240" y1="255" x2="233" y2="248"/>
    <line x1="200" y1="270" x2="200" y2="260"/>
    <line x1="160" y1="255" x2="167" y2="248"/>
    <line x1="130" y1="200" x2="140" y2="200"/>
    <line x1="160" y1="145" x2="167" y2="152"/>
  </g>
  <circle cx="200" cy="200" r="4" fill="#333"/>
  <line x1="200" y1="200" x2="200" y2="160" stroke="#333" stroke-width="6" stroke-linecap="round"/>
  <line x1="200" y1="200" x2="245" y2="155" stroke="#666" stroke-width="4" stroke-linecap="round"/>
  <rect x="210" y="215" width="30" height="20" fill="#fff" stroke="#999" stroke-width="1" rx="2"/>
  <text x="225" y="228" font-family="Arial" font-size="12" text-anchor="middle">15</text>
  <text x="200" y="250" font-family="Arial" font-size="12" font-weight="bold" fill="#666" text-anchor="middle">TAG HEUER</text>
</svg>