<svg xmlns="http://www.w3.org/2000/svg" viewBox="0 0 400 400">
  <rect width="400" height="400" fill="#f5f5f5"/>
  <rect x="80" y="80" width="240" height="240" rx="40" fill="#1a1a1a" stroke="#333" stroke-width="2"/>
  <rect x="95" y="95" width="210" height="210" rx="35" fill="#333"/>
  <rect x="110" y="110" width="180" height="180" rx="30" fill="#2d5016"/>
  <g stroke="#E0A084" stroke-width="2">
    <line x1="200" y1="125" x2="200" y2="140"/>
    <line x1="260" y1="145" x2="250" y2="155"/>
    <line x1="275" y1="200" x2="260" y2="200"/>
    <line x1="260" y1="255" x2="250" y2="245"/>
    <line x1="200" y1="275" x2="200" y2="260"/>
    <line x1="140" y1="255" x2="150" y2="245"/>
    <line x1="125" y1="200" x2="140" y2="200"/>
    <line x1="140" y1="145" x2="150" y2="155"/>
  </g>
  <circle cx="200" cy="200" r="5" fill="#E0A084"/>
  <line x1="200" y1="200" x2="200" y2="155" stroke="#E0A084" stroke-width="6" stroke-linecap="round"/>
  <line x1="200" y1="200" x2="245" y2="155" stroke="#fff" stroke-width="4" stroke-linecap="round"/>
  <text x="200" y="260" font-family="Arial" font-size="12" font-weight="bold" fill="#E0A084" text-anchor="middle">TOMMY</text>
</svg>