<svg xmlns="http://www.w3.org/2000/svg" viewBox="0 0 400 400">
  <rect width="400" height="400" fill="#f5f5f5"/>
  <circle cx="200" cy="200" r="180" fill="#1a1a1a" stroke="#333" stroke-width="2"/>
  <circle cx="200" cy="200" r="170" fill="#2a2a2a"/>
  <circle cx="200" cy="200" r="155" fill="#003366"/>
  <defs>
    <radialGradient id="sunburst" cx="40%" cy="40%">
      <stop offset="0%" style="stop-color:#004488;stop-opacity:1" />
      <stop offset="100%" style="stop-color:#001a33;stop-opacity:1" />
    </radialGradient>
  </defs>
  <circle cx="200" cy="200" r="155" fill="url(#sunburst)" opacity="0.7"/>
  <g stroke="#E0A084" stroke-width="3">
    <line x1="200" y1="50" x2="200" y2="75"/>
    <line x1="313" y1="87" x2="303" y2="103"/>
    <line x1="350" y1="200" x2="325" y2="200"/>
    <line x1="313" y1="313" x2="303" y2="297"/>
    <line x1="200" y1="350" x2="200" y2="325"/>
    <line x1="87" y1="313" x2="97" y2="297"/>
    <line x1="50" y1="200" x2="75" y2="200"/>
    <line x1="87" y1="87" x2="97" y2="103"/>
  </g>
  <circle cx="200" cy="200" r="7" fill="#E0A084"/>
  <line x1="200" y1="200" x2="200" y2="110" stroke="#E0A084" stroke-width="8" stroke-linecap="round"/>
  <line x1="200" y1="200" x2="200" y2="70" stroke="#fff" stroke-width="6" stroke-linecap="round"/>
  <line x1="200" y1="200" x2="200" y2="65" stroke="#E0A084" stroke-width="2" stroke-linecap="round"/>
  <text x="200" y="280" font-family="Arial" font-size="16" font-weight="bold" fill="#E0A084" text-anchor="middle">SUUNTO</text>
</svg>